<svg width="683" height="683" viewBox="0 0 683 683" fill="none" xmlns="http://www.w3.org/2000/svg">
<path d="M326.531 521.377C299.224 521.377 275.536 516.277 255.467 506.078C235.727 495.55 220.428 480.416 209.571 460.676C199.043 440.936 193.779 416.919 193.779 388.625V370.365H273.726V393.066C273.726 408.858 278.332 421.689 287.544 431.559C297.085 441.1 310.081 445.871 326.531 445.871C342.652 445.871 355.318 441.1 364.53 431.559C374.071 421.689 378.842 408.858 378.842 393.066V212.445H459.776V388.625C459.776 416.919 454.347 440.936 443.49 460.676C432.962 480.416 417.664 495.55 397.595 506.078C377.855 516.277 354.167 521.377 326.531 521.377ZM235.727 222.315V151.745H459.776V222.315H235.727Z" fill="#14142B"/>
</svg>
